<svg xmlns="http://www.w3.org/2000/svg" xmlns:xlink="http://www.w3.org/1999/xlink" width="1024" zoomAndPan="magnify" viewBox="0 0 768 576" height="768" preserveAspectRatio="xMidYMid meet" version="1.2"><defs><clipPath id="9469b2ae74"><path d="M 288 195.570312 L 407 195.570312 L 407 307 L 288 307 Z M 288 195.570312 "/></clipPath><clipPath id="91d20e7c46"><path d="M 277.308594 218 L 396 218 L 396 328.320312 L 277.308594 328.320312 Z M 277.308594 218 "/></clipPath><clipPath id="49bccc70c9"><path d="M 369 303 L 487.808594 303 L 487.808594 414 L 369 414 Z M 369 303 "/></clipPath><clipPath id="4501039cae"><path d="M 358.058594 325 L 477 325 L 477 435.386719 L 358.058594 435.386719 Z M 358.058594 325 "/></clipPath><clipPath id="253e5c47e7"><path d="M 216 126.554688 L 335.535156 126.554688 L 335.535156 199 L 216 199 Z M 216 126.554688 "/></clipPath><clipPath id="cce8d1fea3"><path d="M 216 126.554688 L 325 126.554688 L 325 211 L 216 211 Z M 216 126.554688 "/></clipPath><clipPath id="19a05d50df"><path d="M 206.921875 126.554688 L 325 126.554688 L 325 221 L 206.921875 221 Z M 206.921875 126.554688 "/></clipPath><clipPath id="1e3e583d68"><path d="M 442 410 L 560.734375 410 L 560.734375 449.636719 L 442 449.636719 Z M 442 410 "/></clipPath><clipPath id="dafbde8bdb"><path d="M 441 420 L 551 420 L 551 449.636719 L 441 449.636719 Z M 441 420 "/></clipPath><clipPath id="9f5baa7551"><path d="M 432.484375 432 L 550 432 L 550 449.636719 L 432.484375 449.636719 Z M 432.484375 432 "/></clipPath></defs><g id="b59031a0d5"><rect x="0" width="768" y="0" height="576" style="fill:#ffffff;fill-opacity:1;stroke:none;"/><rect x="0" width="768" y="0" height="576" style="fill:#000000;fill-opacity:1;stroke:none;"/><g clip-rule="nonzero" clip-path="url(#9469b2ae74)"><path style=" stroke:none;fill-rule:nonzero;fill:#fff5e7;fill-opacity:1;" d="M 406.964844 235.398438 C 406.964844 257.125 389.289062 274.796875 367.558594 274.796875 L 316.679688 274.796875 C 308.929688 274.796875 302.625 281.101562 302.625 288.851562 C 302.625 296.601562 308.929688 302.902344 316.679688 302.902344 L 394.289062 302.902344 C 395.203125 302.902344 395.945312 303.648438 395.945312 304.558594 C 395.945312 305.472656 395.203125 306.210938 394.289062 306.210938 L 316.679688 306.210938 C 307.105469 306.210938 299.320312 298.425781 299.320312 288.851562 C 299.320312 279.28125 307.105469 271.492188 316.679688 271.492188 L 367.558594 271.492188 C 387.464844 271.492188 403.65625 255.300781 403.65625 235.398438 C 403.65625 215.492188 387.464844 199.300781 367.558594 199.300781 L 289.949219 199.300781 C 289.03125 199.300781 288.292969 198.5625 288.292969 197.644531 C 288.292969 196.730469 289.03125 195.992188 289.949219 195.992188 L 367.558594 195.992188 C 389.289062 195.992188 406.964844 213.667969 406.964844 235.398438 "/></g><path style=" stroke:none;fill-rule:nonzero;fill:#7689a2;fill-opacity:1;" d="M 396.492188 235.398438 C 396.492188 251.347656 383.511719 264.332031 367.558594 264.332031 L 316.679688 264.332031 C 303.152344 264.332031 292.152344 275.332031 292.152344 288.851562 C 292.152344 302.375 303.152344 313.375 316.679688 313.375 L 394.289062 313.375 C 395.503906 313.375 396.492188 314.363281 396.492188 315.582031 C 396.492188 316.796875 395.503906 317.785156 394.289062 317.785156 L 316.679688 317.785156 C 300.726562 317.785156 287.746094 304.804688 287.746094 288.851562 C 287.746094 272.902344 300.726562 259.917969 316.679688 259.917969 L 367.558594 259.917969 C 381.085938 259.917969 392.085938 248.917969 392.085938 235.398438 C 392.085938 221.871094 381.085938 210.871094 367.558594 210.871094 L 289.949219 210.871094 C 288.734375 210.871094 287.746094 209.886719 287.746094 208.667969 C 287.746094 207.453125 288.734375 206.464844 289.949219 206.464844 L 367.558594 206.464844 C 383.511719 206.464844 396.492188 219.445312 396.492188 235.398438 "/><g clip-rule="nonzero" clip-path="url(#91d20e7c46)"><path style=" stroke:none;fill-rule:nonzero;fill:#fff5e7;fill-opacity:1;" d="M 395.945312 326.601562 C 395.945312 327.515625 395.203125 328.257812 394.289062 328.257812 L 316.679688 328.257812 C 294.949219 328.257812 277.273438 310.582031 277.273438 288.851562 C 277.273438 267.125 294.949219 249.449219 316.679688 249.449219 L 367.558594 249.449219 C 375.308594 249.449219 381.613281 243.148438 381.613281 235.398438 C 381.613281 227.648438 375.308594 221.34375 367.558594 221.34375 L 289.949219 221.34375 C 289.03125 221.34375 288.292969 220.601562 288.292969 219.691406 C 288.292969 218.777344 289.03125 218.039062 289.949219 218.039062 L 367.558594 218.039062 C 377.132812 218.039062 384.917969 225.824219 384.917969 235.398438 C 384.917969 244.964844 377.132812 252.757812 367.558594 252.757812 L 316.679688 252.757812 C 296.773438 252.757812 280.582031 268.949219 280.582031 288.851562 C 280.582031 308.757812 296.773438 324.949219 316.679688 324.949219 L 394.289062 324.949219 C 395.203125 324.949219 395.945312 325.6875 395.945312 326.601562 "/></g><g clip-rule="nonzero" clip-path="url(#49bccc70c9)"><path style=" stroke:none;fill-rule:nonzero;fill:#fff5e7;fill-opacity:1;" d="M 487.710938 342.460938 C 487.710938 364.1875 470.035156 381.859375 448.304688 381.859375 L 397.425781 381.859375 C 389.675781 381.859375 383.375 388.164062 383.375 395.914062 C 383.375 403.664062 389.675781 409.96875 397.425781 409.96875 L 475.039062 409.96875 C 475.953125 409.96875 476.691406 410.710938 476.691406 411.621094 C 476.691406 412.535156 475.953125 413.273438 475.039062 413.273438 L 397.425781 413.273438 C 387.851562 413.273438 380.066406 405.488281 380.066406 395.914062 C 380.066406 386.34375 387.851562 378.554688 397.425781 378.554688 L 448.304688 378.554688 C 468.210938 378.554688 484.40625 362.363281 484.40625 342.460938 C 484.40625 322.554688 468.210938 306.363281 448.304688 306.363281 L 370.695312 306.363281 C 369.78125 306.363281 369.042969 305.625 369.042969 304.710938 C 369.042969 303.796875 369.78125 303.054688 370.695312 303.054688 L 448.304688 303.054688 C 470.035156 303.054688 487.710938 320.730469 487.710938 342.460938 "/></g><path style=" stroke:none;fill-rule:nonzero;fill:#7689a2;fill-opacity:1;" d="M 477.238281 342.460938 C 477.238281 358.410156 464.261719 371.394531 448.304688 371.394531 L 397.425781 371.394531 C 383.898438 371.394531 372.902344 382.394531 372.902344 395.914062 C 372.902344 409.441406 383.898438 420.441406 397.425781 420.441406 L 475.039062 420.441406 C 476.25 420.441406 477.238281 421.425781 477.238281 422.644531 C 477.238281 423.859375 476.25 424.847656 475.039062 424.847656 L 397.425781 424.847656 C 381.472656 424.847656 368.492188 411.867188 368.492188 395.914062 C 368.492188 379.964844 381.472656 366.980469 397.425781 366.980469 L 448.304688 366.980469 C 461.832031 366.980469 472.832031 355.980469 472.832031 342.460938 C 472.832031 328.933594 461.832031 317.9375 448.304688 317.9375 L 370.695312 317.9375 C 369.480469 317.9375 368.492188 316.949219 368.492188 315.730469 C 368.492188 314.515625 369.480469 313.527344 370.695312 313.527344 L 448.304688 313.527344 C 464.261719 313.527344 477.238281 326.507812 477.238281 342.460938 "/><g clip-rule="nonzero" clip-path="url(#4501039cae)"><path style=" stroke:none;fill-rule:nonzero;fill:#fff5e7;fill-opacity:1;" d="M 476.691406 433.664062 C 476.691406 434.582031 475.953125 435.320312 475.039062 435.320312 L 397.425781 435.320312 C 375.695312 435.320312 358.019531 417.644531 358.019531 395.914062 C 358.019531 374.1875 375.695312 356.515625 397.425781 356.515625 L 448.304688 356.515625 C 456.054688 356.515625 462.359375 350.210938 462.359375 342.460938 C 462.359375 334.710938 456.054688 328.410156 448.304688 328.410156 L 370.695312 328.410156 C 369.78125 328.410156 369.042969 327.664062 369.042969 326.753906 C 369.042969 325.839844 369.78125 325.101562 370.695312 325.101562 L 448.304688 325.101562 C 457.878906 325.101562 465.664062 332.886719 465.664062 342.460938 C 465.664062 352.03125 457.878906 359.820312 448.304688 359.820312 L 397.425781 359.820312 C 377.519531 359.820312 361.328125 376.011719 361.328125 395.914062 C 361.328125 415.820312 377.519531 432.011719 397.425781 432.011719 L 475.039062 432.011719 C 475.953125 432.011719 476.691406 432.75 476.691406 433.664062 "/></g><g clip-rule="nonzero" clip-path="url(#253e5c47e7)"><path style=" stroke:none;fill-rule:nonzero;fill:#fff5e7;fill-opacity:1;" d="M 335.4375 128.132812 C 335.4375 149.859375 317.761719 167.53125 296.03125 167.53125 L 245.152344 167.53125 C 237.402344 167.53125 231.101562 173.835938 231.101562 181.585938 C 231.101562 189.335938 237.402344 195.636719 245.152344 195.636719 L 322.765625 195.636719 C 323.679688 195.636719 324.417969 196.382812 324.417969 197.292969 C 324.417969 198.207031 323.679688 198.945312 322.765625 198.945312 L 245.152344 198.945312 C 235.578125 198.945312 227.792969 191.160156 227.792969 181.585938 C 227.792969 172.015625 235.578125 164.226562 245.152344 164.226562 L 296.03125 164.226562 C 315.9375 164.226562 332.132812 148.035156 332.132812 128.132812 C 332.132812 108.226562 315.9375 92.035156 296.03125 92.035156 L 218.421875 92.035156 C 217.507812 92.035156 216.769531 91.296875 216.769531 90.378906 C 216.769531 89.464844 217.507812 88.726562 218.421875 88.726562 L 296.03125 88.726562 C 317.761719 88.726562 335.4375 106.402344 335.4375 128.132812 "/></g><g clip-rule="nonzero" clip-path="url(#cce8d1fea3)"><path style=" stroke:none;fill-rule:nonzero;fill:#7689a2;fill-opacity:1;" d="M 324.964844 128.132812 C 324.964844 144.082031 311.988281 157.066406 296.03125 157.066406 L 245.152344 157.066406 C 231.625 157.066406 220.628906 168.066406 220.628906 181.585938 C 220.628906 195.109375 231.625 206.109375 245.152344 206.109375 L 322.765625 206.109375 C 323.976562 206.109375 324.964844 207.097656 324.964844 208.316406 C 324.964844 209.53125 323.976562 210.519531 322.765625 210.519531 L 245.152344 210.519531 C 229.199219 210.519531 216.21875 197.539062 216.21875 181.585938 C 216.21875 165.636719 229.199219 152.652344 245.152344 152.652344 L 296.03125 152.652344 C 309.558594 152.652344 320.558594 141.652344 320.558594 128.132812 C 320.558594 114.605469 309.558594 103.605469 296.03125 103.605469 L 218.421875 103.605469 C 217.207031 103.605469 216.21875 102.621094 216.21875 101.402344 C 216.21875 100.1875 217.207031 99.199219 218.421875 99.199219 L 296.03125 99.199219 C 311.988281 99.199219 324.964844 112.179688 324.964844 128.132812 "/></g><g clip-rule="nonzero" clip-path="url(#19a05d50df)"><path style=" stroke:none;fill-rule:nonzero;fill:#fff5e7;fill-opacity:1;" d="M 324.417969 219.335938 C 324.417969 220.25 323.679688 220.992188 322.765625 220.992188 L 245.152344 220.992188 C 223.421875 220.992188 205.746094 203.316406 205.746094 181.585938 C 205.746094 159.859375 223.421875 142.183594 245.152344 142.183594 L 296.03125 142.183594 C 303.78125 142.183594 310.085938 135.882812 310.085938 128.132812 C 310.085938 120.382812 303.78125 114.078125 296.03125 114.078125 L 218.421875 114.078125 C 217.507812 114.078125 216.769531 113.335938 216.769531 112.425781 C 216.769531 111.511719 217.507812 110.773438 218.421875 110.773438 L 296.03125 110.773438 C 305.605469 110.773438 313.390625 118.558594 313.390625 128.132812 C 313.390625 137.699219 305.605469 145.492188 296.03125 145.492188 L 245.152344 145.492188 C 225.246094 145.492188 209.054688 161.683594 209.054688 181.585938 C 209.054688 201.492188 225.246094 217.683594 245.152344 217.683594 L 322.765625 217.683594 C 323.679688 217.683594 324.417969 218.421875 324.417969 219.335938 "/></g><g clip-rule="nonzero" clip-path="url(#1e3e583d68)"><path style=" stroke:none;fill-rule:nonzero;fill:#fff5e7;fill-opacity:1;" d="M 560.804688 449.699219 C 560.804688 471.425781 543.128906 489.101562 521.398438 489.101562 L 470.519531 489.101562 C 462.769531 489.101562 456.464844 495.402344 456.464844 503.152344 C 456.464844 510.902344 462.769531 517.207031 470.519531 517.207031 L 548.128906 517.207031 C 549.042969 517.207031 549.78125 517.949219 549.78125 518.859375 C 549.78125 519.773438 549.042969 520.511719 548.128906 520.511719 L 470.519531 520.511719 C 460.945312 520.511719 453.160156 512.726562 453.160156 503.152344 C 453.160156 493.585938 460.945312 485.792969 470.519531 485.792969 L 521.398438 485.792969 C 541.304688 485.792969 557.496094 469.601562 557.496094 449.699219 C 557.496094 429.792969 541.304688 413.601562 521.398438 413.601562 L 443.785156 413.601562 C 442.871094 413.601562 442.132812 412.863281 442.132812 411.949219 C 442.132812 411.035156 442.871094 410.296875 443.785156 410.296875 L 521.398438 410.296875 C 543.128906 410.296875 560.804688 427.972656 560.804688 449.699219 "/></g><g clip-rule="nonzero" clip-path="url(#dafbde8bdb)"><path style=" stroke:none;fill-rule:nonzero;fill:#7689a2;fill-opacity:1;" d="M 550.332031 449.699219 C 550.332031 465.648438 537.351562 478.632812 521.398438 478.632812 L 470.519531 478.632812 C 456.992188 478.632812 445.992188 489.632812 445.992188 503.152344 C 445.992188 516.679688 456.992188 527.679688 470.519531 527.679688 L 548.128906 527.679688 C 549.34375 527.679688 550.332031 528.667969 550.332031 529.886719 C 550.332031 531.101562 549.34375 532.085938 548.128906 532.085938 L 470.519531 532.085938 C 454.5625 532.085938 441.585938 519.109375 441.585938 503.152344 C 441.585938 487.203125 454.5625 474.222656 470.519531 474.222656 L 521.398438 474.222656 C 534.925781 474.222656 545.921875 463.222656 545.921875 449.699219 C 545.921875 436.175781 534.925781 425.175781 521.398438 425.175781 L 443.785156 425.175781 C 442.574219 425.175781 441.585938 424.1875 441.585938 422.96875 C 441.585938 421.753906 442.574219 420.769531 443.785156 420.769531 L 521.398438 420.769531 C 537.351562 420.769531 550.332031 433.746094 550.332031 449.699219 "/></g><g clip-rule="nonzero" clip-path="url(#9f5baa7551)"><path style=" stroke:none;fill-rule:nonzero;fill:#fff5e7;fill-opacity:1;" d="M 549.78125 540.90625 C 549.78125 541.820312 549.042969 542.558594 548.128906 542.558594 L 470.519531 542.558594 C 448.789062 542.558594 431.113281 524.882812 431.113281 503.152344 C 431.113281 481.429688 448.789062 463.753906 470.519531 463.753906 L 521.398438 463.753906 C 529.148438 463.753906 535.449219 457.449219 535.449219 449.699219 C 535.449219 441.953125 529.148438 435.648438 521.398438 435.648438 L 443.785156 435.648438 C 442.871094 435.648438 442.132812 434.902344 442.132812 433.996094 C 442.132812 433.082031 442.871094 432.339844 443.785156 432.339844 L 521.398438 432.339844 C 530.972656 432.339844 538.757812 440.128906 538.757812 449.699219 C 538.757812 459.269531 530.972656 467.0625 521.398438 467.0625 L 470.519531 467.0625 C 450.613281 467.0625 434.417969 483.253906 434.417969 503.152344 C 434.417969 523.0625 450.613281 539.253906 470.519531 539.253906 L 548.128906 539.253906 C 549.042969 539.253906 549.78125 539.992188 549.78125 540.90625 "/></g></g></svg>