<svg width="140" height="90" viewBox="0 0 140 90" fill="none" xmlns="http://www.w3.org/2000/svg">
  <path d="M30 60C18 60 9 50 9 38C9 26 18 16 30 16C34 6 44 0 54 4C64 0 74 6 78 16C90 16 99 26 99 38C99 50 90 60 78 60H30Z" fill="#ffffff" opacity="0.8"/>
  <path d="M45 55C37 55 31 48 31 40C31 32 37 25 45 25C47 18 53 15 59 17C65 15 71 18 73 25C81 25 87 32 87 40C87 48 81 55 73 55H45Z" fill="#ffffff" opacity="0.6"/>
  <path d="M20 45C15 45 12 41 12 36C12 31 15 27 20 27C21 23 25 21 29 22C33 21 37 23 38 27C43 27 46 31 46 36C46 41 43 45 38 45H20Z" fill="#ffffff" opacity="0.9"/>
</svg>